<svg width="433" height="478" viewBox="0 0 433 478" fill="none" xmlns="http://www.w3.org/2000/svg">
<g clip-path="url(#clip0_265_11138)">
<mask id="mask0_265_11138" style="mask-type:alpha" maskUnits="userSpaceOnUse" x="-980" y="-695" width="1511" height="1606">
<g clip-path="url(#clip1_265_11138)">
<path d="M363.712 455.902L363.785 457.794C289.041 460.046 228.982 452.072 180.083 433.343C136.333 416.549 102.537 391.464 76.7409 356.597C28.77 291.755 16.9306 205.274 4.34731 113.635C-12.0878 -6.23789 -29.1717 -130.355 -133.552 -202.797C-225.966 -266.942 -279.089 -216.191 -346.348 -151.94C-396.352 -104.157 -453.054 -50.0134 -538.011 -34.0052C-636.133 -15.5535 -753.972 -51.9524 -898.279 -145.297L-897.114 -146.861C-753.3 -53.8067 -635.967 -17.5156 -538.438 -35.9112C-454.163 -51.756 -397.632 -105.719 -347.809 -153.288C-315.092 -184.556 -284.186 -214.088 -250.393 -227.035C-212.872 -241.408 -175.381 -234.23 -132.35 -204.351C-27.2939 -131.425 -10.218 -6.86529 6.35001 113.375C18.9659 204.762 30.7845 291.108 78.3691 355.426C132.303 428.288 222.933 460.189 363.712 455.902Z" fill="#FF1D03"/>
<path d="M375.07 461.337L375.071 463.063C103.699 462.606 68.6165 307.611 31.4789 143.512C3.69109 20.7467 -25.0586 -106.211 -153.416 -179.597C-256.368 -238.473 -310.122 -193.964 -372.356 -142.427C-417.295 -105.215 -468.217 -63.0223 -545.634 -55.204C-634.398 -46.2137 -744.18 -83.8834 -881.249 -170.392L-880.207 -171.801C-743.521 -85.5553 -634.134 -47.9656 -545.77 -56.9448C-469.016 -64.669 -418.218 -106.707 -373.5 -143.77C-310.723 -195.746 -256.52 -240.644 -152.342 -181.054C-23.2884 -107.253 5.50649 20.0315 33.326 143.102C70.2754 306.541 105.207 460.886 375.07 461.337Z" fill="#FF1D03"/>
<path d="M386.427 466.772L386.357 468.331C279.938 463.987 206.405 433.667 154.889 372.931C109.123 318.956 86.8056 248.187 63.1901 173.29C23.571 47.5684 -17.4043 -82.425 -173.327 -156.372C-286.194 -209.933 -339.85 -173.581 -396.619 -135.113C-478.923 -79.3702 -572.196 -16.1646 -864.289 -195.449L-863.362 -196.738C-572.232 -18.0472 -479.425 -80.9428 -397.658 -136.337C-340.447 -175.103 -286.394 -211.727 -172.589 -157.764C-102.542 -124.512 -49.3358 -76.5072 -9.73152 -11.0477C25.1405 46.8103 45.3359 110.853 64.8618 172.798C110.946 319.114 154.477 457.297 386.427 466.772Z" fill="#FF1D03"/>
<path d="M397.761 472.22L397.643 473.6C308.007 465.564 243.615 436.285 195.06 381.502C151.775 332.655 126.461 269.616 99.609 202.871C50.2495 80.059 -5.76159 -59.2382 -193.219 -133.216C-315.081 -181.344 -365.595 -156.34 -419.032 -129.878C-493.033 -93.2106 -569.57 -55.3218 -847.259 -220.544L-846.446 -221.713C-569.49 -56.9157 -493.342 -94.6236 -419.718 -131.088C-365.951 -157.728 -315.178 -182.871 -192.655 -134.485C-108.561 -101.286 -43.6472 -52.4519 5.83003 14.825C49.4413 74.0873 75.6605 139.301 101.001 202.384C155.435 337.762 202.438 454.735 397.761 472.22Z" fill="#FF1D03"/>
<path d="M409.132 477.677L408.905 478.881C335.357 467.704 280.327 439.669 235.752 390.611C195.951 346.79 169.13 291.352 140.761 232.651C79.7633 106.486 10.5803 -36.5657 -213.157 -110.035C-341.688 -152.315 -393.242 -138.425 -438.634 -126.13C-505.816 -108 -563.651 -92.4505 -830.266 -245.648L-829.577 -246.663C-563.55 -93.9094 -505.819 -109.373 -439.111 -127.307C-393.416 -139.619 -341.737 -153.459 -212.755 -111.159C11.5427 -37.494 80.8786 105.856 141.934 232.165C199.338 350.846 248.906 453.358 409.132 477.677Z" fill="#FF1D03"/>
<path d="M420.466 483.124L420.191 484.15C292.875 454.381 243.659 365.723 186.701 263.127C114.451 132.963 32.5098 -14.5936 -233.15 -86.942C-358.593 -121.085 -411.374 -121.601 -449.76 -122.064C-513.551 -122.789 -545.541 -123.101 -813.301 -270.796L-812.749 -271.679C-545.175 -124.03 -513.269 -123.702 -449.727 -123.076C-411.122 -122.614 -358.385 -122.016 -232.83 -87.8455C-114.185 -55.5677 -21.5703 -5.1932 50.3083 66.1594C113.198 128.606 151.04 196.742 187.538 262.705C244.552 365.037 293.618 453.454 420.466 483.124Z" fill="#FF1D03"/>
<path d="M431.814 488.594L431.477 489.419C335.679 456.208 290.217 381.53 237.471 295.125C159.058 166.557 61.4679 6.57438 -253.034 -63.6733C-288.48 -71.6017 -317.56 -77.9583 -343.198 -83.5662C-480.973 -113.666 -480.973 -113.666 -548.097 -155.223C-588.624 -180.191 -656.181 -222.041 -796.25 -295.756L-795.789 -296.531C-655.719 -222.816 -588.015 -180.929 -547.572 -155.945C-480.552 -114.507 -480.552 -114.507 -342.973 -84.419C-317.321 -78.7891 -288.264 -72.4199 -252.832 -64.5133C-112.569 -33.1794 -3.46449 18.0499 80.7429 92.1488C154.12 156.696 198.852 230.041 238.312 294.76C290.888 380.992 336.35 455.466 431.814 488.594Z" fill="#FF1D03"/>
<path d="M443.124 494.054L442.787 494.675C376.069 460.418 337.501 399.93 292.848 329.906C206.784 194.9 99.6536 26.8938 -273.023 -40.5236C-367.485 -57.6316 -425.477 -72.4546 -461.122 -88.8186C-495.286 -104.46 -509.312 -121.359 -527.147 -142.846C-558.466 -180.559 -601.252 -232.25 -779.271 -320.882L-778.92 -321.481C-600.857 -232.726 -557.913 -181.033 -526.566 -143.276C-508.822 -121.886 -494.796 -104.987 -460.785 -89.4393C-425.231 -73.1723 -367.273 -58.302 -272.884 -41.2126C100.126 26.2883 207.324 194.404 293.469 329.542C338.199 399.436 376.596 459.9 443.124 494.054Z" fill="#FF1D03"/>
<path d="M454.448 499.536L454.096 499.931C413.231 467.977 384.823 422.346 351.836 369.412C266.864 233.027 150.488 46.2182 -292.988 -17.3863C-497.023 -46.6763 -514.939 -88.9809 -539.687 -147.556C-561.874 -199.963 -589.566 -265.377 -762.231 -346.012L-761.98 -346.469C-589.14 -265.753 -561.434 -200.317 -539.135 -147.678C-514.411 -89.2943 -496.527 -47.0903 -292.812 -17.8617C-95.874 10.3972 53.3648 64.3072 163.473 146.974C258.304 218.273 308.266 298.453 352.306 369.158C385.266 422.049 413.725 467.711 454.448 499.536Z" fill="#FF1D03"/>
<path d="M371.482 345.657C386.884 370.562 399.972 394.666 412.201 417.128C429.877 449.614 446.575 480.316 465.721 504.988L465.416 505.152C446.192 480.405 429.521 449.747 411.831 417.239C376.958 353.092 336.502 278.7 259.109 210.144C289.439 237.037 316.62 266.864 340.194 299.121C351.681 314.755 362.01 330.341 371.482 345.657ZM100.114 108.361C1.04322 62.6073 -131.518 25.7765 -312.964 5.78529C-411.43 -5.06894 -473.689 -24.6131 -508.929 -55.7364C-540.778 -83.8602 -547.729 -119.084 -555.104 -156.362C-568.531 -224.316 -583.753 -301.308 -745.281 -371.034L-745.131 -371.349C-673.019 -340.234 -623.681 -304.772 -594.304 -262.999C-568.544 -226.415 -561.533 -190.843 -554.744 -156.439C-547.396 -119.205 -540.425 -84.0503 -508.678 -55.9889C-473.502 -24.9188 -411.293 -5.40583 -312.925 5.44251C-252.106 11.9625 -191.702 21.487 -131.966 33.976C-82.4167 44.349 -33.6375 57.6952 14.0673 73.9316C43.3875 83.968 72.1107 95.4609 100.114 108.361Z" fill="#FF1D03"/>
<path d="M425.153 381.738C442.499 416.479 454.72 449.828 465.721 480.09C469.601 490.725 473.273 500.771 476.981 510.417L476.816 510.505C473.082 500.816 469.436 490.814 465.542 480.157C454.419 449.698 442.205 416.257 425.153 381.738ZM-103.888 58.6904C-179.608 44.7494 -256.118 34.8319 -333.047 28.9859C-358.365 27.0754 -383.54 23.7836 -408.445 19.1271C-427.91 15.4897 -447.01 10.3204 -465.54 3.67475C-496.303 -7.68472 -519.129 -22.3858 -535.326 -41.2745C-565.59 -76.5718 -567.973 -121.192 -570.513 -168.449C-572.838 -212.164 -575.346 -259.116 -601.984 -302.19C-623.696 -337.298 -661.513 -369.9 -728.406 -396.075L-728.265 -396.151C-711.233 -389.575 -694.742 -381.84 -678.925 -373.008C-665.551 -365.6 -652.918 -357.085 -641.178 -347.566C-621.795 -331.851 -606.041 -312.621 -594.871 -291.044C-574.52 -251.544 -572.256 -209.347 -570.092 -168.529C-567.928 -127.711 -565.806 -88.6849 -545.641 -56.0777C-542.464 -50.9338 -538.872 -46.0235 -534.895 -41.3895C-501.039 -1.85519 -436.79 20.4494 -332.741 28.8211C-259.083 34.4919 -185.811 43.8807 -113.246 56.9462L-103.888 58.6904Z" fill="#FF1D03"/>
</g>
</mask>
<g mask="url(#mask0_265_11138)">
<rect x="-813.346" y="-260.515" width="1476.92" height="767.919" fill="url(#paint0_linear_265_11138)"/>
</g>
</g>
<defs>
<linearGradient id="paint0_linear_265_11138" x1="-813.346" y1="119.788" x2="663.575" y2="119.788" gradientUnits="userSpaceOnUse">
<stop offset="0.239583" stop-color="#1DBDF0" stop-opacity="0"/>
<stop offset="0.380208" stop-color="#1DBDF0" stop-opacity="0.19"/>
<stop offset="0.614583" stop-color="#8DDB13"/>
<stop offset="0.833333" stop-color="#8DDB13" stop-opacity="0"/>
</linearGradient>
<clipPath id="clip0_265_11138">
<rect width="433" height="478" fill="white" transform="translate(-0.5)"/>
</clipPath>
<clipPath id="clip1_265_11138">
<rect width="1396.45" height="880.972" fill="white" transform="matrix(-0.525977 -0.850499 0.880275 -0.474465 -244.998 911)"/>
</clipPath>
</defs>
</svg>
