<svg width="119" height="40" viewBox="0 0 119 40" fill="none" xmlns="http://www.w3.org/2000/svg">
<path d="M23.9261 1.91881L0 39.8421C11.4735 40.9453 20.3177 35.0614 23.3056 31.9816L31.4418 19.5704C32.2233 20.8345 34.9583 25.0865 39.647 31.9816C44.3357 38.8768 51.8514 40.0949 55.0232 39.8421C47.8293 28.649 32.8484 5.39396 30.4765 1.91881C28.1046 -1.55634 25.1213 0.470831 23.9261 1.91881Z" fill="#58742B"/>
<path fill-rule="evenodd" clip-rule="evenodd" d="M39.1665 15.2403C37.3175 14.8192 35.2004 15.0977 33.3725 17.0881C32.422 18.1231 31.5966 19.2702 30.8923 20.4086L23.3056 31.9816C20.2717 36.0497 11.4735 40.9453 0 39.8421L23.9261 1.91881C25.1213 0.470831 28.1046 -1.55634 30.4765 1.91881C31.5179 3.44462 34.99 8.7835 39.1665 15.2403Z" fill="#32A6CB"/>
<path d="M59.1838 21.1492H55.5482L61.0878 5.10229H65.4599L70.9917 21.1492H67.3561L63.3365 8.76925H63.2112L59.1838 21.1492ZM58.9565 14.8417H67.5441V17.49H58.9565V14.8417Z" fill="#000302"/>
<path d="M69.9099 7.89953V5.10229H83.089V7.89953H78.1762V21.1492H74.8226V7.89953H69.9099Z" fill="#000302"/>
<path d="M94.7298 5.10229H98.1226V15.5234C98.1226 16.6934 97.8431 17.7173 97.2842 18.5948C96.7305 19.4724 95.9548 20.1567 94.9571 20.6477C93.9594 21.1335 92.7971 21.3764 91.4703 21.3764C90.1383 21.3764 88.9735 21.1335 87.9757 20.6477C86.978 20.1567 86.2023 19.4724 85.6486 18.5948C85.0949 17.7173 84.8181 16.6934 84.8181 15.5234V5.10229H88.2108V15.2334C88.2108 15.8446 88.344 16.3879 88.6104 16.8632C88.882 17.3385 89.2634 17.712 89.7544 17.9837C90.2454 18.2553 90.8174 18.3911 91.4703 18.3911C92.1285 18.3911 92.7005 18.2553 93.1863 17.9837C93.6773 17.712 94.056 17.3385 94.3224 16.8632C94.594 16.3879 94.7298 15.8446 94.7298 15.2334V5.10229Z" fill="#000302"/>
<path d="M100.473 5.10229H104.657L109.076 15.8838H109.264L113.683 5.10229H117.867V21.1492H114.576V10.7046H114.443L110.29 21.0708H108.049L103.897 10.6654H103.763V21.1492H100.473V5.10229Z" fill="#000302"/>
<path d="M66.1297 28.1834H63.7703C63.7272 27.8781 63.6392 27.607 63.5063 27.3699C63.3734 27.1293 63.2029 26.9246 62.9946 26.7558C62.7863 26.5871 62.5457 26.4578 62.2727 26.368C62.0034 26.2782 61.7107 26.2333 61.3947 26.2333C60.8237 26.2333 60.3263 26.3752 59.9025 26.6589C59.4788 26.939 59.1502 27.3484 58.9167 27.8871C58.6833 28.4222 58.5666 29.0722 58.5666 29.8371C58.5666 30.6236 58.6833 31.2844 58.9167 31.8195C59.1538 32.3545 59.4842 32.7586 59.9079 33.0315C60.3317 33.3044 60.8219 33.4409 61.3785 33.4409C61.691 33.4409 61.9801 33.3996 62.2458 33.317C62.5151 33.2344 62.754 33.1141 62.9622 32.9561C63.1705 32.7945 63.3429 32.5988 63.4794 32.3689C63.6194 32.1391 63.7164 31.8769 63.7703 31.5824L66.1297 31.5932C66.0687 32.0996 65.916 32.588 65.6718 33.0584C65.4312 33.5253 65.1062 33.9437 64.6968 34.3136C64.291 34.6799 63.8062 34.9707 63.2424 35.1862C62.6821 35.3981 62.0483 35.504 61.3408 35.504C60.3568 35.504 59.477 35.2814 58.7013 34.8361C57.9292 34.3908 57.3187 33.7461 56.8697 32.9022C56.4244 32.0583 56.2018 31.0366 56.2018 29.8371C56.2018 28.634 56.428 27.6106 56.8805 26.7666C57.333 25.9227 57.9471 25.2799 58.7228 24.8381C59.4985 24.3928 60.3712 24.1702 61.3408 24.1702C61.98 24.1702 62.5726 24.2599 63.1185 24.4395C63.6679 24.6191 64.1545 24.8812 64.5783 25.226C65.0021 25.5671 65.3468 25.9855 65.6126 26.4811C65.8819 26.9767 66.0543 27.5441 66.1297 28.1834Z" fill="#000302"/>
<path d="M69.1931 35.3532H66.6936L70.5021 24.321H73.5079L77.311 35.3532H74.8115L72.0481 26.842H71.9619L69.1931 35.3532ZM69.0369 31.0168H74.9408V32.8376H69.0369V31.0168Z" fill="#000302"/>
<path d="M78.3355 35.3532V24.321H82.688C83.5248 24.321 84.2377 24.4808 84.8266 24.8004C85.4156 25.1165 85.8645 25.5564 86.1733 26.1202C86.4858 26.6804 86.642 27.3268 86.642 28.0595C86.642 28.7921 86.484 29.4385 86.1679 29.9987C85.8519 30.5589 85.394 30.9953 84.7943 31.3077C84.1982 31.6201 83.4763 31.7764 82.6288 31.7764H79.8546V29.9071H82.2517C82.7006 29.9071 83.0705 29.8299 83.3614 29.6755C83.6559 29.5175 83.8749 29.3002 84.0186 29.0237C84.1658 28.7436 84.2395 28.4222 84.2395 28.0595C84.2395 27.6931 84.1658 27.3735 84.0186 27.1006C83.8749 26.8241 83.6559 26.6104 83.3614 26.4596C83.0669 26.3051 82.6934 26.2279 82.2409 26.2279H80.668V35.3532H78.3355Z" fill="#000302"/>
<path d="M90.1861 24.321V35.3532H87.8536V24.321H90.1861Z" fill="#000302"/>
<path d="M91.3816 26.2441V24.321H100.442V26.2441H97.0647V35.3532H94.7592V26.2441H91.3816Z" fill="#000302"/>
<path d="M102.185 35.3532H99.685L103.494 24.321H106.499L110.302 35.3532H107.803L105.04 26.842H104.953L102.185 35.3532ZM102.028 31.0168H107.932V32.8376H102.028V31.0168Z" fill="#000302"/>
<path d="M111.327 35.3532V24.321H113.659V33.4301H118.389V35.3532H111.327Z" fill="#000302"/>
</svg>
