<svg width="29" height="28" viewBox="0 0 29 28" fill="none" xmlns="http://www.w3.org/2000/svg">
<g clip-path="url(#clip0_1316_1041)">
<path d="M2.074 24.2385H6.52853V13.4855L0.164917 8.74158V22.3409C0.164917 23.3893 1.01923 24.2385 2.074 24.2385Z" fill="#4285F4"/>
<path d="M21.8013 24.2385H26.2558C27.3106 24.2385 28.1649 23.3893 28.1649 22.3409V8.74158L21.8013 13.4855V24.2385Z" fill="#34A853"/>
<path d="M21.8013 5.26268V13.4855L28.1649 8.74159V6.21148C28.1649 3.86638 25.4715 2.527 23.5831 3.93437L21.8013 5.26268Z" fill="#FBBC04"/>
<path d="M6.52856 13.4856V5.2627L14.1649 10.9554L21.8012 5.2627V13.4856L14.1649 19.1783L6.52856 13.4856Z" fill="#EA4335"/>
<path d="M0.164917 6.21148V8.74159L6.52853 13.4855V5.26268L4.74672 3.93437C2.85832 2.527 0.164917 3.86638 0.164917 6.21148Z" fill="#C5221F"/>
</g>
<defs>
<clipPath id="clip0_1316_1041">
<rect width="28" height="28" fill="white" transform="translate(0.164917)"/>
</clipPath>
</defs>
</svg>
