<svg width="43" height="41" viewBox="0 0 43 41" fill="none" xmlns="http://www.w3.org/2000/svg">
<g clip-path="url(#clip0_1316_458)">
<mask id="mask0_1316_458" style="mask-type:luminance" maskUnits="userSpaceOnUse" x="0" y="0" width="43" height="41">
<path d="M43 0.387817H0.164917V40.6117H43V0.387817Z" fill="white"/>
</mask>
<g mask="url(#mask0_1316_458)">
<path d="M42.2743 0.386719H11.3301C11.1373 0.386719 10.9525 0.463235 10.8162 0.599513C10.6799 0.735792 10.6034 0.920638 10.6034 1.11336V10.758H0.89259C0.699863 10.758 0.515017 10.8345 0.378738 10.9708C0.24246 11.1071 0.165894 11.2919 0.165894 11.4847V39.8807C0.165668 40.024 0.207774 40.164 0.286928 40.2834C0.366082 40.4028 0.478774 40.4961 0.610802 40.5517C0.700114 40.5888 0.795862 40.608 0.89259 40.6082C1.08316 40.6083 1.26611 40.5334 1.40206 40.3999L8.09232 33.8396H31.8352C32.028 33.8396 32.2128 33.7631 32.349 33.6268C32.4853 33.4905 32.5619 33.3057 32.5619 33.1129V23.4691H35.0714L41.7616 30.0302C41.8637 30.1319 41.9938 30.2009 42.1352 30.2285C42.2766 30.2561 42.423 30.241 42.5558 30.1852C42.6887 30.1294 42.8019 30.0353 42.8812 29.915C42.9605 29.7947 43.0022 29.6535 43.001 29.5094V1.1142C43.001 0.921476 42.9244 0.736629 42.7882 0.600351C42.6519 0.464073 42.467 0.386719 42.2743 0.386719ZM31.1078 32.3871H7.79762C7.60756 32.3868 7.42495 32.461 7.28895 32.5938L1.62411 38.1496V12.2146H31.111L31.1078 32.3871ZM41.5436 27.7775L35.8788 22.2217C35.7426 22.0879 35.5593 22.0131 35.3685 22.0134H32.5619V11.4871C32.5619 11.2944 32.4853 11.1095 32.349 10.9732C32.2128 10.837 32.028 10.7604 31.8352 10.7604H12.0535V1.84169H41.5477L41.5436 27.7775Z" fill="white"/>
<path d="M16.3649 23.8714C16.6754 23.8716 16.9788 23.7797 17.237 23.6074C17.4952 23.4351 17.6965 23.1901 17.8155 22.9034C17.9345 22.6167 17.9658 22.3012 17.9054 21.9967C17.8451 21.6922 17.6958 21.4124 17.4765 21.1928C17.2572 20.9731 16.9776 20.8234 16.6732 20.7626C16.3689 20.7018 16.0533 20.7326 15.7664 20.8511C15.4795 20.9696 15.2342 21.1706 15.0615 21.4285C14.8888 21.6865 14.7965 21.9898 14.7961 22.3002C14.7961 22.7165 14.9613 23.1158 15.2555 23.4104C15.5496 23.705 15.9487 23.8708 16.3649 23.8714Z" fill="white"/>
<path d="M23.9304 24.1654C24.2975 24.1654 24.6563 24.0566 24.9616 23.8528C25.2668 23.649 25.5049 23.3593 25.6456 23.0203C25.7863 22.6813 25.8234 22.3082 25.7522 21.9481C25.681 21.588 25.5047 21.2571 25.2456 20.9972C24.9864 20.7373 24.656 20.56 24.2962 20.4877C23.9363 20.4154 23.5631 20.4513 23.2237 20.591C22.8843 20.7307 22.5938 20.9679 22.3891 21.2725C22.1844 21.5772 22.0745 21.9356 22.0734 22.3027C22.0726 22.547 22.1201 22.7891 22.2131 23.0151C22.3061 23.2411 22.4428 23.4464 22.6153 23.6195C22.7878 23.7925 22.9928 23.9298 23.2185 24.0235C23.4441 24.1172 23.6861 24.1654 23.9304 24.1654Z" fill="white"/>
<path d="M8.80197 23.58C9.05473 23.5801 9.30184 23.5053 9.51211 23.365C9.72237 23.2248 9.88632 23.0253 9.98323 22.7919C10.0801 22.5584 10.1057 22.3015 10.0566 22.0535C10.0075 21.8056 9.88596 21.5778 9.70741 21.3989C9.52885 21.22 9.30125 21.0981 9.0534 21.0485C8.80555 20.9989 8.5486 21.024 8.31498 21.1204C8.08135 21.2169 7.88158 21.3804 7.7409 21.5904C7.60023 21.8004 7.52498 22.0474 7.52466 22.3002C7.52487 22.6391 7.65942 22.9642 7.89885 23.204C8.13828 23.4439 8.46304 23.5791 8.80197 23.58Z" fill="white"/>
<path d="M42.2743 0.386719H11.3301C11.1373 0.386719 10.9525 0.463235 10.8162 0.599513C10.6799 0.735792 10.6034 0.920638 10.6034 1.11336V10.758H0.89259C0.699863 10.758 0.515017 10.8345 0.378738 10.9708C0.24246 11.1071 0.165894 11.2919 0.165894 11.4847V39.8807C0.165668 40.024 0.207774 40.164 0.286928 40.2834C0.366082 40.4028 0.478774 40.4961 0.610802 40.5517C0.700114 40.5888 0.795862 40.608 0.89259 40.6082C1.08316 40.6083 1.26611 40.5334 1.40206 40.3999L8.09232 33.8396H31.8352C32.028 33.8396 32.2128 33.7631 32.349 33.6268C32.4853 33.4905 32.5619 33.3057 32.5619 33.1129V23.4691H35.0714L41.7616 30.0302C41.8637 30.1319 41.9938 30.2009 42.1352 30.2285C42.2766 30.2561 42.423 30.241 42.5558 30.1852C42.6887 30.1294 42.8019 30.0353 42.8812 29.915C42.9605 29.7947 43.0022 29.6535 43.001 29.5094V1.1142C43.001 0.921476 42.9244 0.736629 42.7882 0.600351C42.6519 0.464073 42.467 0.386719 42.2743 0.386719ZM31.1078 32.3871H7.79762C7.60756 32.3868 7.42495 32.461 7.28895 32.5938L1.62411 38.1496V12.2146H31.111L31.1078 32.3871ZM41.5436 27.7775L35.8788 22.2217C35.7426 22.0879 35.5593 22.0131 35.3685 22.0134H32.5619V11.4871C32.5619 11.2944 32.4853 11.1095 32.349 10.9732C32.2128 10.837 32.028 10.7604 31.8352 10.7604H12.0535V1.84169H41.5477L41.5436 27.7775Z" fill="#AFDC68"/>
<path d="M16.3649 23.8714C16.6754 23.8716 16.9788 23.7797 17.237 23.6074C17.4952 23.4351 17.6965 23.1901 17.8155 22.9034C17.9345 22.6167 17.9658 22.3012 17.9054 21.9967C17.8451 21.6922 17.6958 21.4124 17.4765 21.1928C17.2572 20.9731 16.9776 20.8234 16.6732 20.7626C16.3689 20.7018 16.0533 20.7326 15.7664 20.8511C15.4795 20.9696 15.2342 21.1706 15.0615 21.4285C14.8888 21.6865 14.7965 21.9898 14.7961 22.3002C14.7961 22.7165 14.9613 23.1158 15.2555 23.4104C15.5496 23.705 15.9487 23.8708 16.3649 23.8714Z" fill="#AFDC68"/>
<path d="M23.9304 24.1654C24.2975 24.1654 24.6563 24.0566 24.9616 23.8528C25.2668 23.649 25.5049 23.3593 25.6456 23.0203C25.7863 22.6813 25.8234 22.3082 25.7522 21.9481C25.681 21.588 25.5047 21.2571 25.2456 20.9972C24.9864 20.7373 24.656 20.56 24.2962 20.4877C23.9363 20.4154 23.5631 20.4513 23.2237 20.591C22.8843 20.7307 22.5938 20.9679 22.3891 21.2725C22.1844 21.5772 22.0745 21.9356 22.0734 22.3027C22.0726 22.547 22.1201 22.7891 22.2131 23.0151C22.3061 23.2411 22.4428 23.4464 22.6153 23.6195C22.7878 23.7925 22.9928 23.9298 23.2185 24.0235C23.4441 24.1172 23.6861 24.1654 23.9304 24.1654Z" fill="#AFDC68"/>
<path d="M8.80197 23.58C9.05473 23.5801 9.30184 23.5053 9.51211 23.365C9.72237 23.2248 9.88632 23.0253 9.98323 22.7919C10.0801 22.5584 10.1057 22.3015 10.0566 22.0535C10.0075 21.8056 9.88596 21.5778 9.70741 21.3989C9.52885 21.22 9.30125 21.0981 9.0534 21.0485C8.80555 20.9989 8.5486 21.024 8.31498 21.1204C8.08135 21.2169 7.88158 21.3804 7.7409 21.5904C7.60023 21.8004 7.52498 22.0474 7.52466 22.3002C7.52487 22.6391 7.65942 22.9642 7.89885 23.204C8.13828 23.4439 8.46304 23.5791 8.80197 23.58Z" fill="#AFDC68"/>
<path d="M42.2743 0.386719H11.3301C11.1373 0.386719 10.9525 0.463235 10.8162 0.599513C10.6799 0.735792 10.6034 0.920638 10.6034 1.11336V10.758H0.89259C0.699863 10.758 0.515017 10.8345 0.378738 10.9708C0.24246 11.1071 0.165894 11.2919 0.165894 11.4847V39.8807C0.165668 40.024 0.207774 40.164 0.286928 40.2834C0.366082 40.4028 0.478774 40.4961 0.610802 40.5517C0.700114 40.5888 0.795862 40.608 0.89259 40.6082C1.08316 40.6083 1.26611 40.5334 1.40206 40.3999L8.09232 33.8396H31.8352C32.028 33.8396 32.2128 33.7631 32.349 33.6268C32.4853 33.4905 32.5619 33.3057 32.5619 33.1129V23.4691H35.0714L41.7616 30.0302C41.8637 30.1319 41.9938 30.2009 42.1352 30.2285C42.2766 30.2561 42.423 30.241 42.5558 30.1852C42.6887 30.1294 42.8019 30.0353 42.8812 29.915C42.9605 29.7947 43.0022 29.6535 43.001 29.5094V1.1142C43.001 0.921476 42.9244 0.736629 42.7882 0.600351C42.6519 0.464073 42.467 0.386719 42.2743 0.386719ZM31.1078 32.3871H7.79762C7.60756 32.3868 7.42495 32.461 7.28895 32.5938L1.62411 38.1496V12.2146H31.111L31.1078 32.3871ZM41.5436 27.7775L35.8788 22.2217C35.7426 22.0879 35.5593 22.0131 35.3685 22.0134H32.5619V11.4871C32.5619 11.2944 32.4853 11.1095 32.349 10.9732C32.2128 10.837 32.028 10.7604 31.8352 10.7604H12.0535V1.84169H41.5477L41.5436 27.7775Z" fill="#58595B"/>
<path d="M16.3649 23.8714C16.6754 23.8716 16.9788 23.7797 17.237 23.6074C17.4952 23.4351 17.6965 23.1901 17.8155 22.9034C17.9345 22.6167 17.9658 22.3012 17.9054 21.9967C17.8451 21.6922 17.6958 21.4124 17.4765 21.1928C17.2572 20.9731 16.9776 20.8234 16.6732 20.7626C16.3689 20.7018 16.0533 20.7326 15.7664 20.8511C15.4795 20.9696 15.2342 21.1706 15.0615 21.4285C14.8888 21.6865 14.7965 21.9898 14.7961 22.3002C14.7961 22.7165 14.9613 23.1158 15.2555 23.4104C15.5496 23.705 15.9487 23.8708 16.3649 23.8714Z" fill="#58595B"/>
<path d="M23.9304 24.1654C24.2975 24.1654 24.6563 24.0566 24.9616 23.8528C25.2668 23.649 25.5049 23.3593 25.6456 23.0203C25.7863 22.6813 25.8234 22.3082 25.7522 21.9481C25.681 21.588 25.5047 21.2571 25.2456 20.9972C24.9864 20.7373 24.656 20.56 24.2962 20.4877C23.9363 20.4154 23.5631 20.4513 23.2237 20.591C22.8843 20.7307 22.5938 20.9679 22.3891 21.2725C22.1844 21.5772 22.0745 21.9356 22.0734 22.3027C22.0726 22.547 22.1201 22.7891 22.2131 23.0151C22.3061 23.2411 22.4428 23.4464 22.6153 23.6195C22.7878 23.7925 22.9928 23.9298 23.2185 24.0235C23.4441 24.1172 23.6861 24.1654 23.9304 24.1654Z" fill="#58595B"/>
<path d="M8.80197 23.58C9.05473 23.5801 9.30184 23.5053 9.51211 23.365C9.72237 23.2248 9.88632 23.0253 9.98323 22.7919C10.0801 22.5584 10.1057 22.3015 10.0566 22.0535C10.0075 21.8056 9.88596 21.5778 9.70741 21.3989C9.52885 21.22 9.30125 21.0981 9.0534 21.0485C8.80555 20.9989 8.5486 21.024 8.31498 21.1204C8.08135 21.2169 7.88158 21.3804 7.7409 21.5904C7.60023 21.8004 7.52498 22.0474 7.52466 22.3002C7.52487 22.6391 7.65942 22.9642 7.89885 23.204C8.13828 23.4439 8.46304 23.5791 8.80197 23.58Z" fill="#58595B"/>
<path d="M42.2743 0.386719H11.3301C11.1373 0.386719 10.9525 0.463235 10.8162 0.599513C10.6799 0.735792 10.6034 0.920638 10.6034 1.11336V10.758H0.89259C0.699863 10.758 0.515017 10.8345 0.378738 10.9708C0.24246 11.1071 0.165894 11.2919 0.165894 11.4847V39.8807C0.165668 40.024 0.207774 40.164 0.286928 40.2834C0.366082 40.4028 0.478774 40.4961 0.610802 40.5517C0.700114 40.5888 0.795862 40.608 0.89259 40.6082C1.08316 40.6083 1.26611 40.5334 1.40206 40.3999L8.09232 33.8396H31.8352C32.028 33.8396 32.2128 33.7631 32.349 33.6268C32.4853 33.4905 32.5619 33.3057 32.5619 33.1129V23.4691H35.0714L41.7616 30.0302C41.8637 30.1319 41.9938 30.2009 42.1352 30.2285C42.2766 30.2561 42.423 30.241 42.5558 30.1852C42.6887 30.1294 42.8019 30.0353 42.8812 29.915C42.9605 29.7947 43.0022 29.6535 43.001 29.5094V1.1142C43.001 0.921476 42.9244 0.736629 42.7882 0.600351C42.6519 0.464073 42.467 0.386719 42.2743 0.386719ZM31.1078 32.3871H7.79762C7.60756 32.3868 7.42495 32.461 7.28895 32.5938L1.62411 38.1496V12.2146H31.111L31.1078 32.3871ZM41.5436 27.7775L35.8788 22.2217C35.7426 22.0879 35.5593 22.0131 35.3685 22.0134H32.5619V11.4871C32.5619 11.2944 32.4853 11.1095 32.349 10.9732C32.2128 10.837 32.028 10.7604 31.8352 10.7604H12.0535V1.84169H41.5477L41.5436 27.7775Z" fill="#AFDC68"/>
<path d="M16.3649 23.8714C16.6754 23.8716 16.9788 23.7797 17.237 23.6074C17.4952 23.4351 17.6965 23.1901 17.8155 22.9034C17.9345 22.6167 17.9658 22.3012 17.9054 21.9967C17.8451 21.6922 17.6958 21.4124 17.4765 21.1928C17.2572 20.9731 16.9776 20.8234 16.6732 20.7626C16.3689 20.7018 16.0533 20.7326 15.7664 20.8511C15.4795 20.9696 15.2342 21.1706 15.0615 21.4285C14.8888 21.6865 14.7965 21.9898 14.7961 22.3002C14.7961 22.7165 14.9613 23.1158 15.2555 23.4104C15.5496 23.705 15.9487 23.8708 16.3649 23.8714Z" fill="#AFDC68"/>
<path d="M23.9304 24.1654C24.2975 24.1654 24.6563 24.0566 24.9616 23.8528C25.2668 23.649 25.5049 23.3593 25.6456 23.0203C25.7863 22.6813 25.8234 22.3082 25.7522 21.9481C25.681 21.588 25.5047 21.2571 25.2456 20.9972C24.9864 20.7373 24.656 20.56 24.2962 20.4877C23.9363 20.4154 23.5631 20.4513 23.2237 20.591C22.8843 20.7307 22.5938 20.9679 22.3891 21.2725C22.1844 21.5772 22.0745 21.9356 22.0734 22.3027C22.0726 22.547 22.1201 22.7891 22.2131 23.0151C22.3061 23.2411 22.4428 23.4464 22.6153 23.6195C22.7878 23.7925 22.9928 23.9298 23.2185 24.0235C23.4441 24.1172 23.6861 24.1654 23.9304 24.1654Z" fill="#AFDC68"/>
<path d="M8.80197 23.58C9.05473 23.5801 9.30184 23.5053 9.51211 23.365C9.72237 23.2248 9.88632 23.0253 9.98323 22.7919C10.0801 22.5584 10.1057 22.3015 10.0566 22.0535C10.0075 21.8056 9.88596 21.5778 9.70741 21.3989C9.52885 21.22 9.30125 21.0981 9.0534 21.0485C8.80555 20.9989 8.5486 21.024 8.31498 21.1204C8.08135 21.2169 7.88158 21.3804 7.7409 21.5904C7.60023 21.8004 7.52498 22.0474 7.52466 22.3002C7.52487 22.6391 7.65942 22.9642 7.89885 23.204C8.13828 23.4439 8.46304 23.5791 8.80197 23.58Z" fill="#AFDC68"/>
<path d="M42.2743 0.386719H11.3301C11.1373 0.386719 10.9525 0.463235 10.8162 0.599513C10.6799 0.735792 10.6034 0.920638 10.6034 1.11336V10.758H0.89259C0.699863 10.758 0.515017 10.8345 0.378738 10.9708C0.24246 11.1071 0.165894 11.2919 0.165894 11.4847V39.8807C0.165668 40.024 0.207774 40.164 0.286928 40.2834C0.366082 40.4028 0.478774 40.4961 0.610802 40.5517C0.700114 40.5888 0.795862 40.608 0.89259 40.6082C1.08316 40.6083 1.26611 40.5334 1.40206 40.3999L8.09232 33.8396H31.8352C32.028 33.8396 32.2128 33.7631 32.349 33.6268C32.4853 33.4905 32.5619 33.3057 32.5619 33.1129V23.4691H35.0714L41.7616 30.0302C41.8637 30.1319 41.9938 30.2009 42.1352 30.2285C42.2766 30.2561 42.423 30.241 42.5558 30.1852C42.6887 30.1294 42.8019 30.0353 42.8812 29.915C42.9605 29.7947 43.0022 29.6535 43.001 29.5094V1.1142C43.001 0.921476 42.9244 0.736629 42.7882 0.600351C42.6519 0.464073 42.467 0.386719 42.2743 0.386719ZM31.1078 32.3871H7.79762C7.60756 32.3868 7.42495 32.461 7.28895 32.5938L1.62411 38.1496V12.2146H31.111L31.1078 32.3871ZM41.5436 27.7775L35.8788 22.2217C35.7426 22.0879 35.5593 22.0131 35.3685 22.0134H32.5619V11.4871C32.5619 11.2944 32.4853 11.1095 32.349 10.9732C32.2128 10.837 32.028 10.7604 31.8352 10.7604H12.0535V1.84169H41.5477L41.5436 27.7775Z" fill="#AFDC68"/>
<path d="M16.3649 23.8714C16.6754 23.8716 16.9788 23.7797 17.237 23.6074C17.4952 23.4351 17.6965 23.1901 17.8155 22.9034C17.9345 22.6167 17.9658 22.3012 17.9054 21.9967C17.8451 21.6922 17.6958 21.4124 17.4765 21.1928C17.2572 20.9731 16.9776 20.8234 16.6732 20.7626C16.3689 20.7018 16.0533 20.7326 15.7664 20.8511C15.4795 20.9696 15.2342 21.1706 15.0615 21.4285C14.8888 21.6865 14.7965 21.9898 14.7961 22.3002C14.7961 22.7165 14.9613 23.1158 15.2555 23.4104C15.5496 23.705 15.9487 23.8708 16.3649 23.8714Z" fill="#AFDC68"/>
<path d="M23.9304 24.1654C24.2975 24.1654 24.6563 24.0566 24.9616 23.8528C25.2668 23.649 25.5049 23.3593 25.6456 23.0203C25.7863 22.6813 25.8234 22.3082 25.7522 21.9481C25.681 21.588 25.5047 21.2571 25.2456 20.9972C24.9864 20.7373 24.656 20.56 24.2962 20.4877C23.9363 20.4154 23.5631 20.4513 23.2237 20.591C22.8843 20.7307 22.5938 20.9679 22.3891 21.2725C22.1844 21.5772 22.0745 21.9356 22.0734 22.3027C22.0726 22.547 22.1201 22.7891 22.2131 23.0151C22.3061 23.2411 22.4428 23.4464 22.6153 23.6195C22.7878 23.7925 22.9928 23.9298 23.2185 24.0235C23.4441 24.1172 23.6861 24.1654 23.9304 24.1654Z" fill="#AFDC68"/>
<path d="M8.80197 23.58C9.05473 23.5801 9.30184 23.5053 9.51211 23.365C9.72237 23.2248 9.88632 23.0253 9.98323 22.7919C10.0801 22.5584 10.1057 22.3015 10.0566 22.0535C10.0075 21.8056 9.88596 21.5778 9.70741 21.3989C9.52885 21.22 9.30125 21.0981 9.0534 21.0485C8.80555 20.9989 8.5486 21.024 8.31498 21.1204C8.08135 21.2169 7.88158 21.3804 7.7409 21.5904C7.60023 21.8004 7.52498 22.0474 7.52466 22.3002C7.52487 22.6391 7.65942 22.9642 7.89885 23.204C8.13828 23.4439 8.46304 23.5791 8.80197 23.58Z" fill="#AFDC68"/>
<path d="M42.2743 0.386719H11.3301C11.1373 0.386719 10.9525 0.463235 10.8162 0.599513C10.6799 0.735792 10.6034 0.920638 10.6034 1.11336V10.758H0.89259C0.699863 10.758 0.515017 10.8345 0.378738 10.9708C0.24246 11.1071 0.165894 11.2919 0.165894 11.4847V39.8807C0.165668 40.024 0.207774 40.164 0.286928 40.2834C0.366082 40.4028 0.478774 40.4961 0.610802 40.5517C0.700114 40.5888 0.795862 40.608 0.89259 40.6082C1.08316 40.6083 1.26611 40.5334 1.40206 40.3999L8.09232 33.8396H31.8352C32.028 33.8396 32.2128 33.7631 32.349 33.6268C32.4853 33.4905 32.5619 33.3057 32.5619 33.1129V23.4691H35.0714L41.7616 30.0302C41.8637 30.1319 41.9938 30.2009 42.1352 30.2285C42.2766 30.2561 42.423 30.241 42.5558 30.1852C42.6887 30.1294 42.8019 30.0353 42.8812 29.915C42.9605 29.7947 43.0022 29.6535 43.001 29.5094V1.1142C43.001 0.921476 42.9244 0.736629 42.7882 0.600351C42.6519 0.464073 42.467 0.386719 42.2743 0.386719ZM31.1078 32.3871H7.79762C7.60756 32.3868 7.42495 32.461 7.28895 32.5938L1.62411 38.1496V12.2146H31.111L31.1078 32.3871ZM41.5436 27.7775L35.8788 22.2217C35.7426 22.0879 35.5593 22.0131 35.3685 22.0134H32.5619V11.4871C32.5619 11.2944 32.4853 11.1095 32.349 10.9732C32.2128 10.837 32.028 10.7604 31.8352 10.7604H12.0535V1.84169H41.5477L41.5436 27.7775Z" fill="#AFDC68" stroke="#AFDC68" stroke-width="0.807417" stroke-miterlimit="10"/>
<path d="M16.3649 23.8714C16.6754 23.8716 16.9788 23.7797 17.237 23.6074C17.4952 23.4351 17.6965 23.1901 17.8155 22.9034C17.9345 22.6167 17.9658 22.3012 17.9054 21.9967C17.8451 21.6922 17.6958 21.4124 17.4765 21.1928C17.2572 20.9731 16.9776 20.8234 16.6732 20.7626C16.3689 20.7018 16.0533 20.7326 15.7664 20.8511C15.4795 20.9696 15.2342 21.1706 15.0615 21.4285C14.8888 21.6865 14.7965 21.9898 14.7961 22.3002C14.7961 22.7165 14.9613 23.1158 15.2555 23.4104C15.5496 23.705 15.9487 23.8708 16.3649 23.8714Z" fill="#AFDC68" stroke="#AFDC68" stroke-width="0.807417" stroke-miterlimit="10"/>
<path d="M23.9304 24.1654C24.2975 24.1654 24.6563 24.0566 24.9616 23.8528C25.2668 23.649 25.5049 23.3593 25.6456 23.0203C25.7863 22.6813 25.8234 22.3082 25.7522 21.9481C25.681 21.588 25.5047 21.2571 25.2456 20.9972C24.9864 20.7373 24.656 20.56 24.2962 20.4877C23.9363 20.4154 23.5631 20.4513 23.2237 20.591C22.8843 20.7307 22.5938 20.9679 22.3891 21.2725C22.1844 21.5772 22.0745 21.9356 22.0734 22.3027C22.0726 22.547 22.1201 22.7891 22.2131 23.0151C22.3061 23.2411 22.4428 23.4464 22.6153 23.6195C22.7878 23.7925 22.9928 23.9298 23.2185 24.0235C23.4441 24.1172 23.6861 24.1654 23.9304 24.1654Z" fill="#AFDC68" stroke="#AFDC68" stroke-width="0.807417" stroke-miterlimit="10"/>
<path d="M8.80197 23.58C9.05473 23.5801 9.30184 23.5053 9.51211 23.365C9.72237 23.2248 9.88632 23.0253 9.98323 22.7919C10.0801 22.5584 10.1057 22.3015 10.0566 22.0535C10.0075 21.8056 9.88596 21.5778 9.70741 21.3989C9.52885 21.22 9.30125 21.0981 9.0534 21.0485C8.80555 20.9989 8.5486 21.024 8.31498 21.1204C8.08135 21.2169 7.88158 21.3804 7.7409 21.5904C7.60023 21.8004 7.52498 22.0474 7.52466 22.3002C7.52487 22.6391 7.65942 22.9642 7.89885 23.204C8.13828 23.4439 8.46304 23.5791 8.80197 23.58Z" fill="#AFDC68" stroke="#AFDC68" stroke-width="0.807417" stroke-miterlimit="10"/>
</g>
</g>
<defs>
<clipPath id="clip0_1316_458">
<rect width="42.8351" height="40.2239" fill="white" transform="translate(0.164917 0.387817)"/>
</clipPath>
</defs>
</svg>
