<svg width="29" height="28" viewBox="0 0 29 28" fill="none" xmlns="http://www.w3.org/2000/svg">
<g clip-path="url(#clip0_1316_1074)">
<path d="M-0.172932 13.5692C-0.173668 16.0558 0.476042 18.4839 1.71157 20.624L-0.291138 27.9365L7.1921 25.9744C9.25381 27.098 11.5751 27.691 13.9375 27.6919H13.9438C21.7234 27.6919 28.0562 21.3611 28.0594 13.5802C28.061 9.80963 26.594 6.26425 23.9286 3.59695C21.2637 0.929647 17.7194 -0.540037 13.9433 -0.541719C6.16274 -0.541719 -0.169777 5.78843 -0.172932 13.5692Z" fill="url(#paint0_linear_1316_1074)"/>
<path d="M-0.676658 13.5642C-0.677605 16.1405 -0.00444275 18.6554 1.27505 20.8723L-0.799438 28.4468L6.95223 26.4143C9.08792 27.579 11.4925 28.1928 13.9397 28.1937H13.946C22.0048 28.1937 28.565 21.6354 28.5684 13.5761C28.5698 9.66991 27.0501 5.99723 24.2895 3.23422C21.5286 0.471327 17.8573 -1.05094 13.946 -1.05272C5.88586 -1.05272 -0.673451 5.50453 -0.676711 13.5642H-0.676658ZM3.93951 20.4906L3.65015 20.031C2.4335 18.0965 1.7912 15.8608 1.79225 13.5652C1.79483 6.86621 7.24664 1.41629 13.9506 1.41629C17.1971 1.4176 20.2482 2.683 22.5431 4.97944C24.8377 7.27572 26.1004 10.3285 26.0995 13.5751C26.0966 20.2742 20.6446 25.7249 13.946 25.7249H13.9413C11.7601 25.7238 9.62101 25.1382 7.75538 24.0311L7.31137 23.7679L2.71139 24.9739L3.93951 20.4906Z" fill="url(#paint1_linear_1316_1074)"/>
<path fill-rule="evenodd" clip-rule="evenodd" d="M10.2912 7.45331C10.0175 6.84493 9.72944 6.83268 9.46905 6.822C9.25609 6.81291 9.01226 6.81348 8.76886 6.81348C8.5253 6.81348 8.1294 6.90498 7.79466 7.27058C7.45971 7.63619 6.51575 8.52 6.51575 10.3176C6.51575 12.1154 7.82511 13.8523 8.00762 14.0963C8.19029 14.3399 10.5353 18.1466 14.2489 19.6111C17.3352 20.8282 17.9633 20.5861 18.6332 20.5252C19.3031 20.4643 20.7949 19.6416 21.0993 18.7884C21.4038 17.9354 21.4038 17.2042 21.3125 17.0514C21.2211 16.8991 20.9775 16.8077 20.6121 16.625C20.2467 16.4423 18.4505 15.5583 18.1155 15.4365C17.7806 15.3147 17.5369 15.2538 17.2934 15.6196C17.0498 15.985 16.3501 16.8077 16.1368 17.0514C15.9237 17.2956 15.7105 17.326 15.3451 17.1433C14.9797 16.96 13.803 16.5746 12.407 15.33C11.3208 14.3616 10.5876 13.1657 10.3744 12.7999C10.1612 12.4345 10.3516 12.2365 10.5348 12.0544C10.6989 11.8907 10.9003 11.6279 11.083 11.4146C11.2653 11.2012 11.3262 11.049 11.448 10.8053C11.5698 10.5614 11.5089 10.348 11.4175 10.1653C11.3262 9.98258 10.6161 8.17569 10.2912 7.45331Z" fill="white"/>
</g>
<defs>
<linearGradient id="paint0_linear_1316_1074" x1="13.8841" y1="27.9365" x2="13.8841" y2="-0.541746" gradientUnits="userSpaceOnUse">
<stop stop-color="#20B038"/>
<stop offset="1" stop-color="#60D66A"/>
</linearGradient>
<linearGradient id="paint1_linear_1316_1074" x1="13.8845" y1="28.4468" x2="13.8845" y2="-1.05271" gradientUnits="userSpaceOnUse">
<stop stop-color="#F9F9F9"/>
<stop offset="1" stop-color="white"/>
</linearGradient>
<clipPath id="clip0_1316_1074">
<rect width="28" height="28" fill="white" transform="translate(0.164917)"/>
</clipPath>
</defs>
</svg>
